# xmcd
#
# Track frame offsets:
#	150
#	5289
#	38682
#	56611
#	71294
#	92677
#	113016
#	131991
#	154191
#	167132
#	180504
#	193876
#	205577
#	227156
#	239513
#
# Disc length: 3390 seconds
# Revision: 0
# Processed by: cddbd v1.5.2PL0 Copyright (c) Steve Scherf et al.
# Submitted via: dBpowerAMP V12.0
#
DISCID=c40d3c0f
DTITLE=Jeff Tweedy - Alone with a Crowd 1-4-01, Disc 1
DYEAR=2001
DGENRE=Alternative
TTITLE0=Thax Douglas Poem
TTITLE1=Remember the Mountain Bed
TTITLE2=I'm Always in Love
TTITLE3=Alone
TTITLE4=That Wind That Blows
TTITLE5=Out in the Wind
TTITLE6=New Madrid
TTITLE7=I'm the Man Who Loves You
TTITLE8=Red Eyed and Blue
TTITLE9=I Got You (At the End of the Century)
TTITLE10=Hesitating Beauty
TTITLE11=Please Tell My Brother
TTITLE12=Ashes of American Flags
TTITLE13=Candy Floss
TTITLE14=How to Fight Loneliness
EXTD=
EXTT0=
EXTT1=
EXTT2=
EXTT3=
EXTT4=
EXTT5=
EXTT6=
EXTT7=
EXTT8=
EXTT9=
EXTT10=
EXTT11=
EXTT12=
EXTT13=
EXTT14=
PLAYORDER=
